<?xml version="1.0" encoding="utf-8"?>
<!-- Generator: Adobe Illustrator 17.0.0, SVG Export Plug-In . SVG Version: 6.00 Build 0)  -->
<!DOCTYPE svg PUBLIC "-//W3C//DTD SVG 1.1//EN" "http://www.w3.org/Graphics/SVG/1.1/DTD/svg11.dtd">
<svg version="1.1" id="Capa_1" xmlns="http://www.w3.org/2000/svg" xmlns:xlink="http://www.w3.org/1999/xlink" x="0px" y="0px"
	 width="52px" height="52px" viewBox="0 0 52 52" enable-background="new 0 0 52 52" xml:space="preserve">
<path d="M25.865,1.588c-13.786,0-24.96,11.176-24.96,24.961S12.08,51.51,25.865,51.51s24.96-11.176,24.96-24.961
	S39.651,1.588,25.865,1.588z M25.865,46.518c-11.028,0-19.968-8.94-19.968-19.969S14.837,6.58,25.865,6.58
	s19.968,8.94,19.968,19.969S36.894,46.518,25.865,46.518z"/>
<path d="M23.404,20.132c0-2.177-1.767-3.943-3.945-3.943s-3.944,1.767-3.944,3.943c0,2.179,1.766-2.239,3.944-2.239
	S23.404,22.311,23.404,20.132z"/>
<path d="M36.404,20.132c0-2.177-1.767-3.943-3.945-3.943s-3.944,1.767-3.944,3.943c0,2.179,1.766-2.239,3.944-2.239
	S36.404,22.311,36.404,20.132z"/>
<path d="M38.117,30.556c0,3.174-5.46,8.843-12.197,8.843s-12.198-5.669-12.198-8.843s5.461,1.822,12.198,1.822
	S38.117,27.382,38.117,30.556z"/>
</svg>
