<?xml version="1.0" encoding="iso-8859-1"?>
<!-- Generator: Adobe Illustrator 16.0.4, SVG Export Plug-In . SVG Version: 6.00 Build 0)  -->
<!DOCTYPE svg PUBLIC "-//W3C//DTD SVG 1.1//EN" "http://www.w3.org/Graphics/SVG/1.1/DTD/svg11.dtd">
<svg version="1.1" id="Capa_1" xmlns="http://www.w3.org/2000/svg" xmlns:xlink="http://www.w3.org/1999/xlink" x="0px" y="0px"
	 width="20px" height="20px" viewBox="0 0 20 20" style="enable-background:new 0 0 20 20;" xml:space="preserve">
<path style="fill:#010002;" d="M14.164,5.611l0.542,1.631h-1.81V5.611H14.164z M20,4v12c0,2.2-1.8,4-4,4H4c-2.2,0-4-1.8-4-4V4
	c0-2.2,1.8-4,4-4h12C18.2,0,20,1.8,20,4z M3.482,8.922h8.307V3.816H3.482V8.922z M7.127,9.053c-0.551,0-0.996,0.445-0.996,0.994
	c0,0.551,0.445,0.996,0.996,0.996c0.549,0,0.994-0.445,0.994-0.996C8.121,9.498,7.676,9.053,7.127,9.053z M3.482,9.787l1.025,0.26
	h1.261c0-0.307,0.103-0.586,0.273-0.814h-2.56V9.787z M16.518,13.941l-2.715-2.244v0.756H3.482v3h10.32v0.732L16.518,13.941z
	 M14.073,11.043c0.549,0,0.996-0.445,0.996-0.996c0-0.549-0.447-0.994-0.996-0.994c-0.551,0-0.996,0.445-0.996,0.994
	C13.077,10.598,13.522,11.043,14.073,11.043z M16.518,7.785l-1.269-0.543l-0.724-2.174V4.525h-2.27v4.707H8.209
	c0.172,0.229,0.274,0.508,0.274,0.814h4.231c0-0.75,0.608-1.357,1.358-1.357c0.527,0,0.983,0.303,1.208,0.742
	c0.08,0.156,0.132,0.334,0.144,0.52c0.002,0.031,0.007,0.062,0.007,0.096h1.086V7.785z M14.616,10.047
	c0-0.299-0.243-0.543-0.543-0.543s-0.543,0.244-0.543,0.543s0.243,0.543,0.543,0.543S14.616,10.346,14.616,10.047z M6.582,10.047
	c0,0.299,0.244,0.543,0.545,0.543c0.298,0,0.543-0.244,0.543-0.543S7.425,9.504,7.127,9.504C6.826,9.504,6.582,9.748,6.582,10.047z"
	/>
<g>
</g>
<g>
</g>
<g>
</g>
<g>
</g>
<g>
</g>
<g>
</g>
<g>
</g>
<g>
</g>
<g>
</g>
<g>
</g>
<g>
</g>
<g>
</g>
<g>
</g>
<g>
</g>
<g>
</g>
</svg>
