<?xml version="1.0" encoding="iso-8859-1"?>
<!-- Generator: Adobe Illustrator 16.0.4, SVG Export Plug-In . SVG Version: 6.00 Build 0)  -->
<!DOCTYPE svg PUBLIC "-//W3C//DTD SVG 1.1//EN" "http://www.w3.org/Graphics/SVG/1.1/DTD/svg11.dtd">
<svg version="1.1" id="Capa_1" xmlns="http://www.w3.org/2000/svg" xmlns:xlink="http://www.w3.org/1999/xlink" x="0px" y="0px"
	 width="20px" height="20px" viewBox="0 0 20 20" style="enable-background:new 0 0 20 20;" xml:space="preserve">
<path style="fill:#010002;" d="M7.318,13.012c0,0.346-0.281,0.625-0.624,0.625c-0.347,0-0.628-0.279-0.628-0.625
	c0-0.344,0.281-0.625,0.628-0.625C7.037,12.387,7.318,12.668,7.318,13.012z M20,4v12c0,2.2-1.8,4-4,4H4c-2.2,0-4-1.8-4-4V4
	c0-2.2,1.8-4,4-4h12C18.2,0,20,1.8,20,4z M2.5,11.717h9.559V5.842H2.5V11.717z M5.445,12.076H2.5v0.637l1.18,0.299h1.451
	C5.131,12.658,5.249,12.338,5.445,12.076z M7.838,13.012c0-0.631-0.513-1.145-1.144-1.145c-0.634,0-1.146,0.514-1.146,1.145
	c0,0.633,0.513,1.146,1.146,1.146C7.325,14.158,7.838,13.645,7.838,13.012z M15.833,13.012c0-0.631-0.515-1.145-1.146-1.145
	c-0.634,0-1.146,0.514-1.146,1.145c0,0.633,0.513,1.146,1.146,1.146C15.318,14.158,15.833,13.645,15.833,13.012z M17.5,10.408
	l-1.46-0.625l-0.833-2.5V6.658h-2.611v5.418H7.939c0.197,0.262,0.315,0.582,0.315,0.936h4.869c0-0.861,0.7-1.561,1.563-1.561
	c0.606,0,1.131,0.346,1.39,0.852c0.093,0.182,0.151,0.385,0.165,0.598c0.003,0.037,0.008,0.074,0.008,0.111h1.25V10.408z
	 M13.333,7.908v1.875h2.082l-0.623-1.875H13.333z M14.688,12.387c-0.346,0-0.625,0.281-0.625,0.625c0,0.346,0.279,0.625,0.625,0.625
	c0.345,0,0.625-0.279,0.625-0.625C15.312,12.668,15.032,12.387,14.688,12.387z"/>
<g>
</g>
<g>
</g>
<g>
</g>
<g>
</g>
<g>
</g>
<g>
</g>
<g>
</g>
<g>
</g>
<g>
</g>
<g>
</g>
<g>
</g>
<g>
</g>
<g>
</g>
<g>
</g>
<g>
</g>
</svg>
